{
  "asset": {
    "extras": {
      "author": "Niraj (https://sketchfab.com/niraj.upadhyay)",
      "license": "CC-BY-4.0 (http://creativecommons.org/licenses/by/4.0/)",
      "source": "https://sketchfab.com/3d-models/doughnut-309c1d959ae84fd1b4c48ddecf6fbb8f",
      "title": "Doughnut"
    },
    "generator": "gltfeditor.com",
    "version": "2.0"
  },
  "buffers": [
    {
      "uri": "data:application/octet-stream;base64,",
      "byteLength": 276480
    },
    {
      "uri": "data:application/octet-stream;base64,",
      "byteLength": 480
    },
    {
      "uri": "data:application/octet-stream;base64,",
      "byteLength": 72
    }
  ],
  "bufferViews": [
    {
      "buffer": 0,
      "byteOffset": 138240,
      "byteLength": 138240,
      "target": 34962,
      "byteStride": 12
    },
    {
      "buffer": 0,
      "byteOffset": 0,
      "byteLength": 138240,
      "target": 34963
    },
    {
      "buffer": 1,
      "byteOffset": 0,
      "byteLength": 480,
      "target": 34962,
      "byteStride": 20
    },
    {
      "buffer": 2,
      "byteOffset": 0,
      "byteLength": 72,
      "target": 34963
    }
  ],
  "accessors": [
    {
      "bufferView": 0,
      "byteOffset": 48384,
      "componentType": 5126,
      "normalized": false,
      "count": 4032,
      "max": [
        0.9993469715118408,
        1,
        0.9994548559188843
      ],
      "min": [
        -0.9980595707893372,
        -0.999998927116394,
        -0.9988948702812195
      ],
      "type": "VEC3"
    },
    {
      "bufferView": 0,
      "byteOffset": 0,
      "componentType": 5126,
      "normalized": false,
      "count": 4032,
      "max": [
        1.643550992012024,
        0.8210227489471436,
        1.6519949436187744
      ],
      "min": [
        -1.653968334197998,
        -0.15647369623184204,
        -1.6536601781845093
      ],
      "type": "VEC3"
    },
    {
      "bufferView": 1,
      "byteOffset": 0,
      "componentType": 5125,
      "normalized": false,
      "count": 24192,
      "max": [
        4031
      ],
      "min": [
        0
      ],
      "type": "SCALAR"
    },
    {
      "bufferView": 0,
      "byteOffset": 117504,
      "componentType": 5126,
      "normalized": false,
      "count": 1728,
      "max": [
        1,
        1,
        1
      ],
      "min": [
        -1,
        -1,
        -1
      ],
      "type": "VEC3"
    },
    {
      "bufferView": 0,
      "byteOffset": 96768,
      "componentType": 5126,
      "normalized": false,
      "count": 1728,
      "max": [
        1.525761365890503,
        0.531578540802002,
        1.525761365890503
      ],
      "min": [
        -1.525761365890503,
        -0.531578540802002,
        -1.525761365890503
      ],
      "type": "VEC3"
    },
    {
      "bufferView": 1,
      "byteOffset": 96768,
      "componentType": 5125,
      "normalized": false,
      "count": 10368,
      "max": [
        1727
      ],
      "min": [
        0
      ],
      "type": "SCALAR"
    },
    {
      "bufferView": 2,
      "byteOffset": 0,
      "componentType": 5126,
      "count": 24,
      "max": [
        1,
        1,
        1
      ],
      "min": [
        -1,
        -1,
        -1
      ],
      "type": "VEC3"
    },
    {
      "bufferView": 2,
      "byteOffset": 12,
      "componentType": 5126,
      "count": 24,
      "max": [
        1,
        1
      ],
      "min": [
        0,
        0
      ],
      "type": "VEC2"
    },
    {
      "bufferView": 3,
      "byteOffset": 0,
      "componentType": 5123,
      "normalized": false,
      "count": 36,
      "max": [
        23
      ],
      "min": [
        0
      ],
      "type": "SCALAR"
    },
    {
      "bufferView": 3,
      "byteOffset": 0,
      "componentType": 5123,
      "normalized": false,
      "count": 36,
      "max": [
        23
      ],
      "min": [
        0
      ],
      "type": "SCALAR"
    },
    {
      "bufferView": 3,
      "byteOffset": 0,
      "componentType": 5123,
      "normalized": false,
      "count": 36,
      "max": [
        23
      ],
      "min": [
        0
      ],
      "type": "SCALAR"
    },
    {
      "bufferView": 3,
      "byteOffset": 0,
      "componentType": 5123,
      "normalized": false,
      "count": 36,
      "max": [
        23
      ],
      "min": [
        0
      ],
      "type": "SCALAR"
    },
    {
      "bufferView": 3,
      "byteOffset": 0,
      "componentType": 5123,
      "normalized": false,
      "count": 36,
      "max": [
        23
      ],
      "min": [
        0
      ],
      "type": "SCALAR"
    },
    {
      "bufferView": 3,
      "byteOffset": 0,
      "componentType": 5123,
      "normalized": false,
      "count": 36,
      "max": [
        23
      ],
      "min": [
        0
      ],
      "type": "SCALAR"
    },
    {
      "bufferView": 3,
      "byteOffset": 0,
      "componentType": 5123,
      "normalized": false,
      "count": 36,
      "max": [
        23
      ],
      "min": [
        0
      ],
      "type": "SCALAR"
    }
  ],
  "scene": 0,
  "scenes": [
    {
      "nodes": [
        6,
        7,
        8,
        9,
        10,
        11,
        12,
        13
      ],
      "name": "Sketchfab_Scene"
    }
  ],
  "nodes": [
    {
      "name": "Object_4",
      "mesh": 0
    },
    {
      "name": "Torus.001_3",
      "children": [
        0
      ],
      "matrix": [
        1,
        0,
        0,
        0,
        0,
        1,
        0,
        0,
        0,
        0,
        1,
        0,
        0,
        0.5701540112495422,
        0,
        1
      ]
    },
    {
      "name": "Object_6",
      "mesh": 1
    },
    {
      "name": "Torus_2",
      "children": [
        2
      ],
      "matrix": [
        1,
        0,
        0,
        0,
        0,
        1,
        0,
        0,
        0,
        0,
        1,
        0,
        0,
        0.5701540112495422,
        0,
        1
      ]
    },
    {
      "name": "GLTF_SceneRootNode",
      "children": [
        1,
        3
      ],
      "matrix": [
        1,
        0,
        0,
        0,
        0,
        3.422854177870249e-8,
        0.9999999403953552,
        0,
        0,
        -0.9999999403953552,
        3.422854177870249e-8,
        0,
        0,
        0,
        0,
        1
      ]
    },
    {
      "name": "root",
      "children": [
        4
      ]
    },
    {
      "name": "Sketchfab_model",
      "children": [
        5
      ],
      "matrix": [
        1,
        0,
        0,
        0,
        0,
        3.422854177870249e-8,
        -0.9999999403953552,
        0,
        0,
        0.9999999403953552,
        3.422854177870249e-8,
        0,
        0,
        0,
        0,
        1
      ]
    },
    {
      "name": "Cube",
      "matrix": [
        0.09063077718019485,
        6.941247576719434e-10,
        0.04226182401180267,
        0,
        -0.04848078265786171,
        0.16383039951324463,
        0.10396736860275269,
        0,
        -0.08654714375734329,
        -0.1433941274881363,
        0.18560096621513367,
        0,
        0.6000000238418579,
        1.0499999523162842,
        1.3270000219345093,
        1
      ],
      "mesh": 2
    },
    {
      "name": "Cube",
      "matrix": [
        0.09063077718019485,
        3.4577107843603017e-10,
        0.04226182773709297,
        0,
        0.01467737928032875,
        0.19696155190467834,
        -0.0314757414162159,
        0,
        -0.1040494367480278,
        0.04341204836964607,
        0.22313472628593445,
        0,
        -0.7129999995231628,
        1.2000000476837158,
        0,
        1
      ],
      "mesh": 3
    },
    {
      "name": "Cube",
      "matrix": [
        0.09061697870492935,
        -0.0015817242674529552,
        0.04226182773709297,
        0,
        0.01811259426176548,
        0.1966754049062729,
        -0.0314757414162159,
        0,
        -0.10327594727277756,
        0.045221347361803055,
        0.22313472628593445,
        0,
        0.6129999756813049,
        1.2000000476837158,
        0.20000000298023224,
        1
      ],
      "mesh": 4
    },
    {
      "name": "Cube",
      "matrix": [
        0.06427875906229019,
        3.2841931396632162e-9,
        -0.0766044482588768,
        0,
        -1.0218595747346626e-8,
        0.20000000298023224,
        1.7740870822691846e-16,
        0,
        0.1915111243724823,
        9.784873356011303e-9,
        0.160696879029274,
        0,
        0.057999998331069946,
        1.2000000476837158,
        0.8849999904632568,
        1
      ],
      "mesh": 5
    },
    {
      "name": "Cube",
      "matrix": [
        0.09063077718019485,
        6.941247576719434e-10,
        -0.04226182773709297,
        0,
        -1.5317639379119896e-9,
        0.20000000298023224,
        -1.1670602588749002e-16,
        0,
        0.10565456748008728,
        8.091893821671192e-10,
        0.22657693922519684,
        0,
        1.2000000476837158,
        1.2000000476837158,
        0,
        1
      ],
      "mesh": 6
    },
    {
      "name": "Cube",
      "matrix": [
        0.06427875906229019,
        3.184016661439415e-10,
        -0.0766044482588768,
        0,
        0.08787701278924942,
        0.16383041441440582,
        0.07373756915330887,
        0,
        0.15687671303749084,
        -0.1433941125869751,
        0.13163518905639648,
        0,
        4.308389186859131,
        1.0499999523162842,
        1.3270000219345093,
        1
      ],
      "mesh": 7
    },
    {
      "name": "Cube",
      "matrix": [
        0.06427875906229019,
        3.184016661439415e-10,
        -0.0766044482588768,
        0,
        0.08787701278924942,
        0.16383041441440582,
        0.07373756915330887,
        0,
        0.15687671303749084,
        -0.1433941125869751,
        0.13163518905639648,
        0,
        5.050066947937012,
        1.0499999523162842,
        1.3270000219345093,
        1
      ],
      "mesh": 8
    }
  ],
  "meshes": [
    {
      "primitives": [
        {
          "attributes": {
            "NORMAL": 0,
            "POSITION": 1
          },
          "material": 0,
          "mode": 4,
          "indices": 2
        }
      ]
    },
    {
      "primitives": [
        {
          "attributes": {
            "NORMAL": 3,
            "POSITION": 4
          },
          "material": 1,
          "mode": 4,
          "indices": 5
        }
      ]
    },
    {
      "primitives": [
        {
          "attributes": {
            "POSITION": 6,
            "TEXCOORD_0": 7
          },
          "material": 2,
          "mode": 4,
          "indices": 8
        }
      ]
    },
    {
      "primitives": [
        {
          "attributes": {
            "POSITION": 6,
            "TEXCOORD_0": 7
          },
          "material": 3,
          "mode": 4,
          "indices": 9
        }
      ]
    },
    {
      "primitives": [
        {
          "attributes": {
            "POSITION": 6,
            "TEXCOORD_0": 7
          },
          "material": 4,
          "mode": 4,
          "indices": 10
        }
      ]
    },
    {
      "primitives": [
        {
          "attributes": {
            "POSITION": 6,
            "TEXCOORD_0": 7
          },
          "material": 5,
          "mode": 4,
          "indices": 11
        }
      ]
    },
    {
      "primitives": [
        {
          "attributes": {
            "POSITION": 6,
            "TEXCOORD_0": 7
          },
          "material": 6,
          "mode": 4,
          "indices": 12
        }
      ]
    },
    {
      "primitives": [
        {
          "attributes": {
            "POSITION": 6,
            "TEXCOORD_0": 7
          },
          "material": 7,
          "mode": 4,
          "indices": 13
        }
      ]
    },
    {
      "primitives": [
        {
          "attributes": {
            "POSITION": 6,
            "TEXCOORD_0": 7
          },
          "material": 8,
          "mode": 4,
          "indices": 14
        }
      ]
    }
  ],
  "materials": [
    {
      "pbrMetallicRoughness": {
        "baseColorFactor": [
          1,
          0.0196078431372549,
          0.023529411764705882,
          1
        ],
        "metallicFactor": 1,
        "roughnessFactor": 1
      },
      "emissiveFactor": [
        0,
        0,
        0
      ],
      "alphaMode": "OPAQUE",
      "doubleSided": true
    },
    {
      "pbrMetallicRoughness": {
        "baseColorFactor": [
          1,
          0.788235294117647,
          0.03529411764705882,
          1
        ],
        "metallicFactor": 0.216535,
        "roughnessFactor": 0.2
      },
      "emissiveFactor": [
        0,
        0,
        0
      ],
      "alphaMode": "OPAQUE",
      "doubleSided": true
    },
    {
      "pbrMetallicRoughness": {
        "baseColorFactor": [
          0.9176470588235294,
          0.043137254901960784,
          0.043137254901960784,
          1
        ],
        "metallicFactor": 1,
        "roughnessFactor": 1
      },
      "emissiveFactor": [
        0.3333333333333333,
        0.6470588235294118,
        0.5019607843137255
      ],
      "alphaMode": "OPAQUE",
      "doubleSided": false
    },
    {
      "pbrMetallicRoughness": {
        "baseColorFactor": [
          0.9176470588235294,
          0.043137254901960784,
          0.043137254901960784,
          1
        ],
        "metallicFactor": 1,
        "roughnessFactor": 1
      },
      "emissiveFactor": [
        0.3411764705882353,
        0.5294117647058824,
        0.6078431372549019
      ],
      "alphaMode": "OPAQUE",
      "doubleSided": false
    },
    {
      "pbrMetallicRoughness": {
        "baseColorFactor": [
          0.9176470588235294,
          0.043137254901960784,
          0.043137254901960784,
          1
        ],
        "metallicFactor": 1,
        "roughnessFactor": 1
      },
      "emissiveFactor": [
        0.7176470588235294,
        0.3607843137254902,
        0.6627450980392157
      ],
      "alphaMode": "OPAQUE",
      "doubleSided": false
    },
    {
      "pbrMetallicRoughness": {
        "baseColorFactor": [
          0.9176470588235294,
          0.043137254901960784,
          0.043137254901960784,
          1
        ],
        "metallicFactor": 1,
        "roughnessFactor": 1
      },
      "emissiveFactor": [
        0.9058823529411765,
        0.40784313725490196,
        0.37254901960784315
      ],
      "alphaMode": "OPAQUE",
      "doubleSided": false
    },
    {
      "pbrMetallicRoughness": {
        "baseColorFactor": [
          0.9176470588235294,
          0.043137254901960784,
          0.043137254901960784,
          1
        ],
        "metallicFactor": 1,
        "roughnessFactor": 1
      },
      "emissiveFactor": [
        0.9450980392156862,
        0.8784313725490196,
        0.3686274509803922
      ],
      "alphaMode": "OPAQUE",
      "doubleSided": false
    },
    {
      "pbrMetallicRoughness": {
        "baseColorFactor": [
          0.9176470588235294,
          0.043137254901960784,
          0.043137254901960784,
          1
        ],
        "metallicFactor": 1,
        "roughnessFactor": 1
      },
      "emissiveFactor": [
        0,
        0,
        0
      ],
      "alphaMode": "OPAQUE",
      "doubleSided": false
    },
    {
      "pbrMetallicRoughness": {
        "baseColorFactor": [
          0.9176470588235294,
          0.043137254901960784,
          0.043137254901960784,
          1
        ],
        "metallicFactor": 1,
        "roughnessFactor": 1
      },
      "emissiveFactor": [
        0,
        0,
        0
      ],
      "alphaMode": "OPAQUE",
      "doubleSided": false
    }
  ]
}